<svg version="1.1" xmlns="http://www.w3.org/2000/svg" viewBox="0 0 173.1 173.1">
<style type="text/css">
	.st0{fill:#94C83D;}
	.st1{fill:#6BA543;}
</style>
<g>
	<path class="st0" d="M22.8,37c12.6,0,22.8,10.2,22.8,22.8c0,3.4-0.7,6.6-2.1,9.5c-0.5,1.1-0.4,2.5,0.5,3.4l36.6,36.8
		c0.6,0.6,0.6,1.6,0,2.2l-6,6c-0.6,0.6-1.6,0.6-2.2,0L52.7,98c-1.8-1.8-4.7-1.8-6.5,0l-2.3,2.3c-0.9,0.9-1,2.3-0.5,3.4
		c1.4,2.9,2.2,6.2,2.2,9.5c0,12.6-10.2,22.8-22.8,22.8C10.2,136.1,0,125.9,0,113.2c0-12.6,10.2-22.8,22.8-22.8
		c3.4,0,6.6,0.8,9.5,2.2c1.1,0.6,2.5,0.4,3.4-0.5l2.2-2.3c1.8-1.8,1.8-4.7,0-6.5l-2.3-2.3c-0.9-0.9-2.2-1-3.4-0.5
		c-2.9,1.3-6.1,2.1-9.5,2.1C10.2,82.7,0,72.5,0,59.9C0,47.3,10.2,37,22.8,37z"/>
	<path class="st1" d="M113.2,127.5c12.6,0,22.8,10.2,22.8,22.8s-10.2,22.8-22.8,22.8c-12.6,0-22.8-10.2-22.8-22.8
		c0-3.4,1.9-7.7,3.3-10.6c0.6-1.1-0.7-1.4-1.6-2.3l-2.3-2.3c-1.8-1.8-4.7-1.8-6.5,0l-2.3,2.3c-0.9,0.9-1,2.3-0.5,3.4
		c1.4,2.9,2.2,6.2,2.2,9.5c0,12.6-10.2,22.8-22.8,22.8c-12.6,0-22.8-10.2-22.8-22.8s10.2-22.8,22.8-22.8c3.4,0,6.6,0.8,9.5,2.2
		c1.1,0.6,2.5,0.4,3.4-0.5l36.5-36.7c0.6-0.6,1.6-0.6,2.2,0l6.1,6.1c0.6,0.6,0.6,1.6,0,2.2L98,120.3c-1.8,1.8-1.8,4.7,0,6.5
		l2.3,2.3c0.9,0.9,2.3,1,3.4,0.5C106.6,128.3,109.9,127.5,113.2,127.5z"/>
	<path class="st0" d="M150.3,90.4c12.6,0,22.8,10.2,22.8,22.8s-10.2,22.8-22.8,22.8c-12.6,0-22.8-10.2-22.8-22.8
		c0-3.4,0.8-6.6,2.2-9.5c0.6-1.1,0.4-2.5-0.5-3.4L92.3,63.6c-0.6-0.6-0.6-1.6,0-2.2l6.1-6.1c0.6-0.6,1.6-0.6,2.2,0l20.7,20.8
		c1.2,1.2,3.2,1.2,4.4,0l3.3-3.3c0.9-0.9,1-2.2,0.5-3.4c-1.3-2.9-2.1-6.1-2.1-9.5c0-12.6,10.2-22.8,22.8-22.8
		c12.6,0,22.8,10.2,22.8,22.8s-10.2,22.8-22.8,22.8c-3.4,0-6.6-0.7-9.5-2.1c-1.1-0.5-2.5-0.4-3.4,0.5l-2.3,2.3
		c-1.8,1.8-1.8,4.7,0,6.5l2.3,2.3c0.9,0.9,2.3,1,3.4,0.5C143.7,91.2,146.9,90.4,150.3,90.4z"/>
	<path class="st1" d="M59.9,0c12.6,0,22.8,10.2,22.8,22.8c0,3.4-0.7,6.6-2.1,9.5c-0.5,1.1-0.4,2.5,0.5,3.4l3.3,3.3
		c1.2,1.2,3.2,1.2,4.4,0l3.3-3.3c0.9-0.9,1-2.2,0.5-3.4c-1.3-2.9-2.1-6.1-2.1-9.5C90.4,10.2,100.6,0,113.2,0
		c12.6,0,22.8,10.2,22.8,22.8c0,12.6-10.2,22.8-22.8,22.8c-3.4,0-6.6-0.7-9.5-2.1c-1.1-0.5-2.5-0.4-3.4,0.5L63.6,80.7
		c-0.6,0.6-1.6,0.6-2.2,0l-6-6c-0.6-0.6-0.6-1.6,0-2.2l20.7-20.7c1.2-1.2,1.2-3.2,0-4.4l-3.3-3.3c-0.9-0.9-2.2-1-3.3-0.5
		c-2.9,1.3-6.1,2.1-9.5,2.1C47.3,45.7,37,35.4,37,22.8C37,10.2,47.3,0,59.9,0z"/>
</g>
</svg>
